PathFileType	4	(X/Y/Z)	E:\Qualisys_Data\Carbon_Farble_Plate\Data\Amateur_Runner\S2\T3\S2T3V23_c3d.trc
DataRate	CameraRate	NumFrames	NumMarkers	Units	OrigDataRate	OrigDataStartFrame	OrigNumFrames
200.000000	200.000000	4	39	mm	200.000000	198	317
Frame#	Time	LSHO			RSHO			LICST			RICST			LASIS			LHEEL			RASIS			LTROC			RTROC			SACR			LTH1			LSK4			LTH2			LTH3			RHM5			LSK2			LTH4			RTH1			LTOE			RTH2			RTH3			RTH4			LLEP			RLEP			LSK1			LSK3			RSK1			LHM5			RSK2			LFT1			RSK3			RSK4			LLME			RLME			RTOE			RHEEL			RFT1			RFT2			LFT2			
		X1	Y1	Z1	X2	Y2	Z2	X3	Y3	Z3	X4	Y4	Z4	X5	Y5	Z5	X6	Y6	Z6	X7	Y7	Z7	X8	Y8	Z8	X9	Y9	Z9	X10	Y10	Z10	X11	Y11	Z11	X12	Y12	Z12	X13	Y13	Z13	X14	Y14	Z14	X15	Y15	Z15	X16	Y16	Z16	X17	Y17	Z17	X18	Y18	Z18	X19	Y19	Z19	X20	Y20	Z20	X21	Y21	Z21	X22	Y22	Z22	X23	Y23	Z23	X24	Y24	Z24	X25	Y25	Z25	X26	Y26	Z26	X27	Y27	Z27	X28	Y28	Z28	X29	Y29	Z29	X30	Y30	Z30	X31	Y31	Z31	X32	Y32	Z32	X33	Y33	Z33	X34	Y34	Z34	X35	Y35	Z35	X36	Y36	Z36	X37	Y37	Z37	X38	Y38	Z38	X39	Y39	Z39	

199	0.99	694.6525268554688	1449.390869140625	-415.2695007324219	759.67041015625	1417.671997070312	-107.0014038085938	651.607421875	986.6334838867188	-412.5655517578125	685.3052978515625	966.3988037109376	-110.8495559692383	714.2886352539062	940.3276977539062	-397.1876220703125	487.0158996582031	414.9294738769531	-311.5560913085938	740.2626342773438	919.5787963867188	-139.0684967041016	599.2614135742188	860.5255126953125	-418.4063720703125	587.4140625	872.0234375	-107.5542984008789	577.9035034179688	1018.942260742188	-249.9947662353516	845.344970703125	706.623779296875	-417.7113342285156	671.1339111328125	481.3299255371094	-397.19970703125	776.7422485351562	659.2135009765625	-429.4745788574219	900.9478149414062	621.4363403320312	-399.4472351074219	417.1539916992188	63.88919067382812	-148.3151397705078	760.7854614257812	523.5135498046875	-411.8547668457031	828.6978759765625	575.1431884765625	-405.1963500976562	666.3427734375	595.1290893554688	-115.5466461181641	608.513916015625	196.0764770507812	-338.7952880859375	590.8810424804688	613.764404296875	-109.5263900756836	639.6068725585938	499.0144348144531	-139.0912017822266	563.78173828125	521.9452514648438	-128.3908081054688	877.25732421875	553.4711303710938	-406.2177124023438	580.942138671875	478.0747375488281	-127.6299438476562	794.930419921875	452.6437072753906	-398.7811279296875	704.3143920898438	411.1690979003906	-387.9863891601562	545.2841186523438	355.7696228027344	-131.3894195556641	556.3234252929688	240.5777130126953	-393.8956909179688	482.2977905273438	403.624755859375	-115.5146789550781	472.0425415039062	392.9266662597656	-280.0676879882812	483.3165283203125	275.2842712402344	-142.7471313476562	422.0187072753906	324.8191833496094	-128.6203155517578	530.5628662109375	369.7284851074219	-365.5040588378906	337.0010375976562	153.7301788330078	-164.5338745117188	476.327880859375	55.76488494873047	-211.7849731445312	256.03564453125	153.5927886962891	-220.9058990478516	258.9396667480469	125.7694091796875	-249.1123809814453	246.6736907958984	131.4472198486328	-200.0025634765625	461.4330749511719	388.9912414550781	-331.2001037597656
200	0.995	711.2557983398438	1454.515625	-415.5038757324219	780.61865234375	1423.319213867188	-108.8394241333008	672.7149047851562	992.4863891601562	-412.9522705078125	708.9522705078125	969.8780517578124	-112.052131652832	735.0942993164062	946.0238037109376	-397.4716491699219	516.9898071289062	401.3621215820312	-311.1580810546875	762.9976196289062	923.29833984375	-140.5237121582031	621.364990234375	866.8064575195312	-420.1206665039062	609.0548095703125	877.5791625976562	-108.1234741210938	599.4209594726562	1023.781066894531	-248.9716491699219	868.0530395507812	713.845458984375	-417.5371398925781	697.2595825195312	478.2841796875	-397.2336120605469	799.7122802734375	665.921630859375	-429.8047790527344	924.1613159179688	628.9409790039062	-399.3570861816406	420.2030944824219	65.5615234375	-146.8307495117188	784.5714111328125	524.51318359375	-411.0791931152344	852.8635864257812	581.8214721679688	-405.4631958007812	681.7293090820312	600.2098388671875	-115.7959442138672	650.9779052734375	190.0050964355469	-340.0218811035156	606.66845703125	620.5176391601562	-108.8995132446289	652.087646484375	504.727294921875	-138.8908386230469	576.4617309570312	529.74658203125	-127.8082275390625	900.7224731445312	560.6947631835938	-406.2146911621094	592.016845703125	485.3313293457031	-126.761833190918	823.2849731445312	454.8222351074219	-399.1270751953125	734.2655639648438	409.4448852539062	-388.515869140625	553.92236328125	363.8980102539062	-129.3567962646484	595.6954345703125	231.7516937255859	-394.8812255859375	491.1053466796875	412.0603332519531	-113.6597366333008	504.5702209472656	377.8492126464844	-280.0302124023438	491.964599609375	282.8362426757812	-140.1312255859375	430.9361267089844	333.4260559082031	-126.9112014770508	562.6856079101562	358.8720397949219	-365.3894958496094	344.7828063964844	160.3281707763672	-162.8336791992188	479.7250671386719	55.2073860168457	-210.4970092773438	264.9590454101562	164.4070892333984	-219.8355712890625	266.7124938964844	137.0955657958984	-248.30712890625	254.1937255859375	142.5805358886719	-199.1032409667969	493.5136108398438	374.8558654785156	-332.243408203125
201	1.0	727.8342895507812	1459.554931640625	-415.5242309570312	800.9972534179688	1429.122802734375	-110.7983093261719	693.7314453125	998.1885986328124	-413.1521301269531	732.941650390625	974.1132202148438	-113.3645782470703	756.0927734375	951.3555297851562	-398.1389465332031	546.6369018554688	387.6737976074219	-311.0185546875	785.1822509765625	926.8615112304688	-141.8783721923828	643.3709106445312	872.675537109375	-421.4291687011719	630.5569458007812	883.126708984375	-108.0752258300781	621.1149291992188	1027.812255859375	-247.8419647216797	891.0833740234375	720.2144775390625	-417.4586791992188	724.1303100585938	474.9080505371094	-398.2021789550781	823.0320434570312	672.1459350585938	-429.2520141601562	947.7926635742188	635.5400390625	-398.975341796875	424.4335632324219	66.18136596679688	-145.2220458984375	808.517822265625	525.3162231445312	-410.6332092285156	876.1873168945312	587.941650390625	-406.0340881347656	696.6668701171875	605.1250610351562	-117.0301666259766	693.4830322265625	184.3554382324219	-341.2171325683594	622.763916015625	627.5933837890625	-108.4640045166016	664.9561767578125	510.4322509765625	-138.4745025634766	589.9447631835938	537.2310180664062	-126.6453704833984	923.875244140625	566.7648315429688	-406.097900390625	604.0789794921875	492.4255981445312	-126.0172271728516	849.8257446289062	458.3264770507812	-400.3648376464844	764.008544921875	407.5285949707031	-388.81591796875	563.5997924804688	372.0408325195312	-127.0646362304688	635.6200561523438	222.8923797607422	-395.7049865722656	500.7071228027344	419.7867126464844	-112.3607635498047	537.2769775390625	362.4837646484375	-279.4244995117188	501.4314880371094	291.4035339355469	-137.371826171875	440.5855102539062	341.7881164550781	-125.2344131469727	595.086669921875	348.1618041992188	-365.37060546875	354.4254760742188	167.4114074707031	-160.7047729492188	483.0730590820312	54.8881950378418	-208.5425262451172	275.1032409667969	175.5534362792969	-218.5970764160156	276.0949401855469	148.9727935791016	-246.8892211914062	263.4460754394531	154.9787750244141	-197.6028137207031	525.9766235351562	360.4667053222656	-332.4670715332031
202	1.005	744.572509765625	1464.743408203125	-415.4548645019531	821.6791381835938	1434.390869140625	-112.5924987792969	715.0201416015625	1004.007934570312	-413.1448364257812	755.5380859375	977.944091796875	-114.5788650512695	777.2665405273438	956.6258544921876	-398.7086791992188	578.228271484375	373.6264343261719	-309.9333801269531	807.8101806640625	930.75244140625	-143.3337249755859	665.41552734375	878.7085571289062	-423.0800170898438	651.8895263671875	889.0030517578125	-108.1508865356445	642.8470458984375	1032.780151367188	-247.8227996826172	913.9257202148438	726.2822875976562	-417.5553894042969	749.6226196289062	469.4813232421875	-395.2796936035156	846.3591918945312	677.9762573242188	-430.1443176269531	970.4967041015624	641.4197387695312	-399.2335205078125	428.9444274902344	67.72337341308594	-144.1919555664062	831.7881469726562	525.2481689453125	-409.7706909179688	899.5810546875	593.86083984375	-406.6725158691406	712.674072265625	609.9680786132812	-117.4293441772461	735.7058715820312	179.1394348144531	-342.9398193359375	639.0565795898438	634.3211059570312	-107.8924713134766	678.2357788085938	516.4600830078125	-138.1000671386719	604.19287109375	545.20751953125	-125.5438003540039	946.9547729492188	572.7010498046875	-405.9837341308594	615.9815063476562	499.9990539550781	-123.8029861450195	876.1692504882812	460.46337890625	-401.1978149414062	793.8240356445312	404.5594787597656	-388.8434753417969	573.2957763671875	380.4692687988281	-125.2100372314453	674.827392578125	214.6837615966797	-396.601806640625	510.1690063476562	428.5995788574219	-111.0808181762695	570.1121215820312	347.3810729980469	-278.4367980957031	511.4644775390625	299.4604797363281	-134.5613098144531	450.5421142578125	349.6683654785156	-124.0126800537109	627.8892822265625	337.5598754882812	-365.431884765625	364.430419921875	174.5235748291016	-159.0089263916016	486.6251220703125	53.89260101318359	-207.3273315429688	286.3170776367188	187.433349609375	-216.2729339599609	286.3778381347656	160.9980010986328	-245.5019226074219	273.4888916015625	167.0478363037109	-196.2506561279297	558.6537475585938	345.9365234375	-331.7644653320312
